<?xml version="1.0" encoding="UTF-8"?>
<!DOCTYPE svg PUBLIC "-//W3C//DTD SVG 1.0//EN" "http://www.w3.org/TR/2001/REC-SVG-20010904/DTD/svg10.dtd">
<!-- Creator: CorelDRAW 2017 -->
<svg xmlns="http://www.w3.org/2000/svg" xml:space="preserve" width="104px" height="102px" version="1.0" style="shape-rendering:geometricPrecision; text-rendering:geometricPrecision; image-rendering:optimizeQuality; fill-rule:evenodd; clip-rule:evenodd"
viewBox="0 0 190 187"
 xmlns:xlink="http://www.w3.org/1999/xlink">
 <defs>
  <style type="text/css">
   <![CDATA[
    .str0 {stroke:#2D2B2D;stroke-width:2;stroke-miterlimit:2.61313}
    .fil0 {fill:#E21D2C}
    .fil1 {fill:#FEFEFE;fill-rule:nonzero}
   ]]>
  </style>
 </defs>
 <g id="Layer_x0020_1">
  <metadata id="CorelCorpID_0Corel-Layer"/>
  <g id="_2869408316896">
   <ellipse class="fil0 str0" cx="95" cy="93" rx="94" ry="93"/>
   <path class="fil1" d="M73 138l-17 0 0 -63c-6,6 -13,10 -22,13l0 -15c4,-1 9,-4 14,-8 5,-4 9,-9 11,-14l14 0 0 88z"/>
   <path id="1" class="fil1" d="M127 50c9,0 15,3 20,9 6,7 9,19 9,36 0,17 -3,28 -9,36 -5,6 -11,9 -20,9 -9,0 -16,-3 -21,-10 -5,-7 -8,-18 -8,-35 0,-16 3,-28 9,-36 5,-6 11,-9 20,-9zm0 14c-2,0 -4,1 -5,2 -2,1 -3,4 -4,7 -1,4 -2,12 -2,22 0,10 1,17 2,21 1,4 2,6 4,8 2,1 3,2 5,2 2,0 4,-1 5,-2 2,-1 3,-4 4,-7 1,-4 2,-12 2,-22 0,-10 -1,-17 -2,-21 -1,-4 -2,-6 -4,-8 -2,-1 -3,-2 -5,-2z"/>
  </g>
 </g>
</svg>
