<?xml version="1.0" encoding="UTF-8"?>
<!DOCTYPE svg PUBLIC "-//W3C//DTD SVG 1.0//EN" "http://www.w3.org/TR/2001/REC-SVG-20010904/DTD/svg10.dtd">
<!-- Creator: CorelDRAW 2017 -->
<svg xmlns="http://www.w3.org/2000/svg" xml:space="preserve" width="104px" height="102px" version="1.0" style="shape-rendering:geometricPrecision; text-rendering:geometricPrecision; image-rendering:optimizeQuality; fill-rule:evenodd; clip-rule:evenodd"
viewBox="0 0 165 162"
 xmlns:xlink="http://www.w3.org/1999/xlink">
 <defs>
  <style type="text/css">
   <![CDATA[
    .str0 {stroke:#2D2B2D;stroke-width:1;stroke-miterlimit:2.61313}
    .fil0 {fill:#009240}
    .fil1 {fill:#FEFEFE;fill-rule:nonzero}
   ]]>
  </style>
 </defs>
 <g id="Layer_x0020_1">
  <metadata id="CorelCorpID_0Corel-Layer"/>
  <g id="_2869418246624">
   <ellipse class="fil0 str0" cx="82" cy="81" rx="82" ry="80"/>
   <path class="fil1" d="M63 119l-15 0 0 -55c-5,5 -12,9 -19,11l0 -13c4,-1 8,-4 13,-7 5,-3 8,-7 9,-12l12 0 0 76z"/>
   <path id="1" class="fil1" d="M85 99l14 -2c0,4 2,6 4,8 2,2 4,3 7,3 3,0 6,-1 8,-3 2,-2 3,-5 3,-9 0,-4 -1,-7 -3,-9 -2,-2 -4,-3 -7,-3 -2,0 -4,0 -7,1l2 -12c4,0 7,-1 9,-3 2,-2 3,-4 3,-7 0,-3 -1,-5 -2,-6 -2,-2 -4,-2 -6,-2 -3,0 -5,1 -6,3 -2,2 -3,4 -3,8l-14 -2c1,-5 2,-8 4,-11 2,-3 5,-5 8,-7 3,-2 7,-2 11,-2 7,0 13,2 17,7 4,4 5,8 5,13 0,7 -4,12 -11,16 4,1 8,3 11,6 3,3 4,7 4,12 0,7 -2,12 -7,17 -5,5 -11,7 -18,7 -7,0 -13,-2 -17,-6 -5,-4 -7,-9 -8,-16z"/>
  </g>
 </g>
</svg>
