<?xml version="1.0" encoding="UTF-8"?>
<!DOCTYPE svg PUBLIC "-//W3C//DTD SVG 1.0//EN" "http://www.w3.org/TR/2001/REC-SVG-20010904/DTD/svg10.dtd">
<!-- Creator: CorelDRAW 2017 -->
<svg xmlns="http://www.w3.org/2000/svg" xml:space="preserve" width="127px" height="127px" version="1.0" style="shape-rendering:geometricPrecision; text-rendering:geometricPrecision; image-rendering:optimizeQuality; fill-rule:evenodd; clip-rule:evenodd"
viewBox="0 0 289 288"
 xmlns:xlink="http://www.w3.org/1999/xlink">
 <defs>
  <style type="text/css">
   <![CDATA[
    .str0 {stroke:#2D2B2D;stroke-width:2;stroke-miterlimit:22.9256}
    .fil0 {fill:#009240}
    .fil1 {fill:#FEFEFE;fill-rule:nonzero}
   ]]>
  </style>
 </defs>
 <g id="Layer_x0020_1">
  <metadata id="CorelCorpID_0Corel-Layer"/>
  <g id="_2869410366912">
   <path class="fil0 str0" d="M175 2c22,7 28,25 29,49 7,-1 21,-8 26,-24 17,15 16,34 6,56 7,2 22,2 34,-12 9,21 0,38 -17,54 5,4 19,10 35,3 0,23 -15,35 -38,42 3,6 14,17 31,17 -9,21 -28,26 -52,23 0,7 5,21 21,28 -17,15 -36,12 -57,0 -2,6 -4,22 8,35 -22,7 -38,-4 -52,-23 -5,5 -12,18 -7,35 -23,-2 -33,-19 -38,-42 -6,2 -19,12 -20,29 -20,-11 -23,-30 -18,-54 -7,0 -22,3 -30,18 -14,-18 -8,-37 6,-56 -6,-3 -21,-6 -35,4 -5,-22 7,-37 28,-49 -4,-5 -17,-14 -34,-10 4,-22 22,-31 46,-34 -2,-7 -10,-20 -27,-23 13,-19 33,-19 55,-12 1,-7 -1,-22 -15,-32 20,-12 38,-4 56,11 4,-6 8,-20 -1,-35 23,-3 36,11 46,33 6,-4 16,-15 14,-33z"/>
   <path class="fil1" d="M115 198l-21 0 0 -78c-8,7 -17,12 -27,16l0 -19c6,-2 11,-5 18,-10 6,-5 11,-11 13,-17l17 0 0 109z"/>
   <path id="1" class="fil1" d="M188 198l0 -22 -45 0 0 -18 48 -69 18 0 0 69 14 0 0 18 -14 0 0 22 -20 0zm0 -40l0 -37 -25 37 25 0z"/>
  </g>
 </g>
</svg>
