<?xml version="1.0" encoding="UTF-8"?>
<!DOCTYPE svg PUBLIC "-//W3C//DTD SVG 1.0//EN" "http://www.w3.org/TR/2001/REC-SVG-20010904/DTD/svg10.dtd">
<!-- Creator: CorelDRAW 2017 -->
<svg xmlns="http://www.w3.org/2000/svg" xml:space="preserve" width="104px" height="102px" version="1.0" style="shape-rendering:geometricPrecision; text-rendering:geometricPrecision; image-rendering:optimizeQuality; fill-rule:evenodd; clip-rule:evenodd"
viewBox="0 0 138 136"
 xmlns:xlink="http://www.w3.org/1999/xlink">
 <defs>
  <style type="text/css">
   <![CDATA[
    .str0 {stroke:#2D2B2D;stroke-width:1;stroke-miterlimit:2.61313}
    .fil0 {fill:#009240}
    .fil1 {fill:#FEFEFE;fill-rule:nonzero}
   ]]>
  </style>
 </defs>
 <g id="Layer_x0020_1">
  <metadata id="CorelCorpID_0Corel-Layer"/>
  <g id="_2869403712272">
   <ellipse class="fil0 str0" cx="69" cy="68" rx="68" ry="67"/>
   <path class="fil1" d="M52 101l-12 0 0 -46c-5,4 -10,7 -16,9l0 -11c3,-1 7,-3 10,-6 4,-3 6,-6 8,-10l10 0 0 64z"/>
   <path id="1" class="fil1" d="M70 84l12 -1c0,3 1,5 3,7 2,2 4,2 6,2 3,0 5,-1 7,-3 2,-2 3,-5 3,-9 0,-4 -1,-7 -3,-9 -2,-2 -4,-3 -7,-3 -4,0 -7,2 -10,5l-10 -1 6 -33 33 0 0 11 -23 0 -2 11c3,-1 6,-2 8,-2 5,0 10,2 14,6 4,4 6,9 6,15 0,5 -2,10 -5,14 -4,6 -10,8 -17,8 -6,0 -11,-2 -15,-5 -4,-3 -6,-7 -7,-13z"/>
  </g>
 </g>
</svg>
