<?xml version="1.0" encoding="UTF-8"?>
<!DOCTYPE svg PUBLIC "-//W3C//DTD SVG 1.0//EN" "http://www.w3.org/TR/2001/REC-SVG-20010904/DTD/svg10.dtd">
<!-- Creator: CorelDRAW 2017 -->
<svg xmlns="http://www.w3.org/2000/svg" xml:space="preserve" width="108px" height="106px" version="1.0" style="shape-rendering:geometricPrecision; text-rendering:geometricPrecision; image-rendering:optimizeQuality; fill-rule:evenodd; clip-rule:evenodd"
viewBox="0 0 150 148"
 xmlns:xlink="http://www.w3.org/1999/xlink">
 <defs>
  <style type="text/css">
   <![CDATA[
    .fil1 {fill:#FEFEFE}
    .fil0 {fill:#009240}
   ]]>
  </style>
 </defs>
 <g id="Layer_x0020_1">
  <metadata id="CorelCorpID_0Corel-Layer"/>
  <g id="_2869412228880">
   <rect class="fil0" width="150" height="148"/>
   <path class="fil1" d="M75 59c3,0 6,3 6,6 0,3 -3,6 -6,6 -3,0 -6,-3 -6,-6 0,-3 3,-6 6,-6zm-8 13l16 0c2,0 4,2 4,4l0 22 -4 0 0 -17c0,0 0,-1 -1,-1l0 0c0,0 -1,0 -1,1l0 17 -13 0 0 -17c0,0 0,-1 -1,-1l0 0c0,0 -1,0 -1,1l0 17 -4 0 0 -22c0,-2 2,-4 4,-4zm70 -52l-17 16 20 0 -14 14 -28 0 0 -27 14 -14 0 21 17 -17 8 7zm-125 0l17 16 -20 0 14 14 28 0 0 -27 -14 -14 0 21 -17 -17 -8 7zm81 31c3,0 6,3 6,6 0,3 -3,6 -6,6 -3,0 -6,-3 -6,-6 0,-3 3,-6 6,-6zm-33 0c3,0 6,3 6,6 0,3 -3,6 -6,6 -3,0 -6,-3 -6,-6 0,-3 3,-6 6,-6zm16 -6c3,0 6,3 6,6 0,3 -3,6 -6,6 -3,0 -6,-3 -6,-6 0,-3 3,-6 6,-6zm-24 21l16 0c0,0 0,0 0,0 0,2 1,4 2,5l-3 0c-3,0 -5,2 -5,5l0 16 -9 0 0 -17c0,0 0,-1 -1,-1l0 0c0,0 -1,0 -1,1l0 17 -4 0 0 -22c0,-2 2,-4 4,-4zm32 0l16 0c2,0 4,2 4,4l0 22 -4 0 0 -17c0,0 0,-1 -1,-1l0 0c0,0 -1,0 -1,1l0 17 -9 0 0 -16c0,-3 -2,-5 -5,-5l-3 0c1,-1 2,-3 2,-5 0,0 0,0 0,0zm-71 63l17 -16 -20 0 14 -14 28 0 0 27 -14 14 0 -21 -17 17 -8 -7zm125 0l-17 -16 20 0 -14 -14 -28 0 0 27 14 14 0 -21 17 17 8 -7z"/>
  </g>
 </g>
</svg>
