<?xml version="1.0" encoding="UTF-8"?>
<!DOCTYPE svg PUBLIC "-//W3C//DTD SVG 1.0//EN" "http://www.w3.org/TR/2001/REC-SVG-20010904/DTD/svg10.dtd">
<!-- Creator: CorelDRAW 2017 -->
<svg xmlns="http://www.w3.org/2000/svg" xml:space="preserve" width="104px" height="102px" version="1.0" style="shape-rendering:geometricPrecision; text-rendering:geometricPrecision; image-rendering:optimizeQuality; fill-rule:evenodd; clip-rule:evenodd"
viewBox="0 0 190 187"
 xmlns:xlink="http://www.w3.org/1999/xlink">
 <defs>
  <style type="text/css">
   <![CDATA[
    .str0 {stroke:#2D2B2D;stroke-width:2;stroke-miterlimit:2.61313}
    .fil0 {fill:#2D2B2D}
    .fil1 {fill:#FEFEFE;fill-rule:nonzero}
   ]]>
  </style>
 </defs>
 <g id="Layer_x0020_1">
  <metadata id="CorelCorpID_0Corel-Layer"/>
  <g id="_2869418282592">
   <ellipse class="fil0 str0" cx="95" cy="93" rx="94" ry="93"/>
   <path class="fil1" d="M90 138c21,0 31,-8 31,-25 0,-13 -6,-19 -18,-20 10,-1 15,-8 15,-21 0,-15 -9,-22 -27,-22 -8,0 -15,1 -21,4l3 13c5,-3 10,-4 16,-4 11,0 13,2 13,11 0,10 -3,13 -15,13l-8 0 0 12 8 0c13,0 17,3 17,12 0,11 -3,13 -17,13 -7,0 -12,-1 -18,-3l-3 13c7,2 14,3 22,3l0 0z"/>
  </g>
 </g>
</svg>
