<?xml version="1.0" encoding="UTF-8"?>
<!DOCTYPE svg PUBLIC "-//W3C//DTD SVG 1.0//EN" "http://www.w3.org/TR/2001/REC-SVG-20010904/DTD/svg10.dtd">
<!-- Creator: CorelDRAW 2017 -->
<svg xmlns="http://www.w3.org/2000/svg" xml:space="preserve" width="104px" height="102px" version="1.0" style="shape-rendering:geometricPrecision; text-rendering:geometricPrecision; image-rendering:optimizeQuality; fill-rule:evenodd; clip-rule:evenodd"
viewBox="0 0 190 187"
 xmlns:xlink="http://www.w3.org/1999/xlink">
 <defs>
  <style type="text/css">
   <![CDATA[
    .str0 {stroke:#2D2B2D;stroke-width:2;stroke-miterlimit:2.61313}
    .fil0 {fill:#E21D2C}
    .fil1 {fill:#FEFEFE;fill-rule:nonzero}
   ]]>
  </style>
 </defs>
 <g id="Layer_x0020_1">
  <metadata id="CorelCorpID_0Corel-Layer"/>
  <g id="_2869410394432">
   <ellipse class="fil0 str0" cx="95" cy="93" rx="94" ry="93"/>
   <path class="fil1" d="M67 116l16 -2c0,3 1,6 3,7 2,2 4,2 7,2 3,0 6,-2 9,-5 2,-3 4,-10 5,-20 -4,5 -10,7 -16,7 -7,0 -13,-3 -18,-8 -5,-5 -8,-12 -8,-21 0,-9 3,-16 8,-21 5,-5 12,-8 20,-8 9,0 16,3 22,10 6,7 9,18 9,34 0,16 -3,27 -9,35 -6,7 -14,11 -23,11 -7,0 -12,-2 -17,-5 -4,-4 -7,-9 -8,-16zm38 -37c0,-5 -1,-10 -4,-13 -2,-3 -5,-4 -9,-4 -3,0 -6,1 -8,4 -2,2 -3,6 -3,12 0,6 1,10 3,12 2,3 5,4 8,4 3,0 6,-1 8,-4 2,-3 3,-6 3,-11z"/>
  </g>
 </g>
</svg>
